# AST/ASF file generated using VICON BodyLanguage
# -----------------------------------------------
:version 1.10
:name VICON
:units
  mass 1.0
  length 0.45
  angle deg
:documentation
   .ast/.asf automatically generated from VICON data using
   VICON BodyBuilder and BodyLanguage model FoxedUp or BRILLIANT.MOD
:root
   order TX TY TZ RX RY RZ
   axis XYZ
   position 0 0 0  
   orientation 0 0 0 
:bonedata
  begin
     id 1 
     name lhipjoint
     direction 0.646657 -0.683706 0.338203 
     length 2.4948 
     axis 0 0 0  XYZ
  end
  begin
     id 2 
     name lfemur
     direction 0.34202 -0.939693 0  
     length 6.79491  
     axis 0 0 20  XYZ
    dof rx ry rz
    limits (-160.0 20.0)
           (-70.0 70.0)
           (-60.0 70.0)
  end
  begin
     id 3 
     name ltibia
     direction 0.34202 -0.939693 0   
     length 7.56807   
     axis 0 0 20   XYZ
    dof rx
    limits (-10.0 170.0)
  end
  begin
     id 4 
     name lfoot
     direction 0.0679796 -0.186772 0.980048   
     length 2.53018   
     axis -90 7.62852e-016 20   XYZ
    dof rx rz
    limits (-45.0 90.0)
           (-70.0 20.0)
  end
  begin
     id 5 
     name ltoes
     direction 1.53625e-011 -4.21881e-011 1   
     length 1.26912   
     axis -90 7.62852e-016 20   XYZ
    dof rx
    limits (-90.0 20.0)
  end
  begin
     id 6 
     name rhipjoint
     direction -0.618868 -0.704065 0.348274   
     length 2.42265  
     axis 0 0 0  XYZ 
  end
  begin
     id 7 
     name rfemur
     direction -0.34202 -0.939693 0   
     length 6.73814   
     axis 0 0 -20   XYZ
    dof rx ry rz
    limits (-160.0 20.0)
           (-70.0 70.0)
           (-70.0 60.0)
  end
  begin
     id 8 
     name rtibia
     direction -0.34202 -0.939693 0   
     length 7.66799   
     axis 0 0 -20   XYZ
    dof rx
    limits (-10.0 170.0)
 end
 begin
     id 9 
     name rfoot
     direction -0.0727352 -0.199838 0.977125   
     length 2.57224  
     axis -90 -7.62852e-016 -20   XYZ
    dof rx rz
    limits (-45.0 90.0)
           (-20.0 70.0)
  end
  begin
     id 10 
     name rtoes
     direction -1.53501e-011 -4.21858e-011 1   
     length 1.28858   
     axis -90 -7.62852e-016 -20   XYZ
    dof rx
    limits (-90.0 20.0)
  end
  begin
     id 11 
     name lowerback
     direction -0.0172471 0.995767 -0.0902851   
     length 2.20206   
     axis 0 0 0   XYZ
    dof rx ry rz
    limits (-20.0 45.0)
           (-30.0 30.0)
           (-30.0 30.0)
  end
  begin
     id 12 
     name upperback
     direction -0.000110737 0.999714 0.0239043   
     length 2.19523   
     axis 0 0 0   XYZ
    dof rx ry rz
    limits (-20.0 45.0)
           (-30.0 30.0)
           (-30.0 30.0)
  end
  begin
     id 13 
     name thorax
     direction 0.00704869 0.997783 0.0661741   
     length 2.21977   
     axis 0 0 0   XYZ
    dof rx ry rz
    limits (-20.0 45.0)
           (-30.0 30.0)
           (-30.0 30.0)
  end
  begin
     id 14 
     name lowerneck
     direction -0.00407501 0.995527 0.0943846   
     length 1.83142   
     axis 0 0 0   XYZ
    dof rx ry rz
    limits (-20.0 45.0)
           (-30.0 30.0)
           (-30.0 30.0)
  end
  begin
     id 15 
     name upperneck
     direction 0.0640586 0.986486 -0.150807   
     length 1.84616   
     axis 0 0 0   XYZ
    dof rx ry rz
    limits (-20.0 45.0)
           (-30.0 30.0)
           (-30.0 30.0)
  end
  begin
     id 16
     name head
     direction 0.0188017 0.99791 -0.0618239  
     length 1.85932  
     axis 0 0 0   XYZ
    dof rx ry rz
    limits (-20.0 45.0)
           (-30.0 30.0)
           (-30.0 30.0)
  end
  begin
     id 17 
     name lclavicle
     direction 0.976074 0.206905 0.066852  
     length 3.81043  
     axis 0 0 0   XYZ
    dof ry rz
    limits (-20.0 10.0)
           (0.0 20.0)
  end
  begin
     id 18 
     name lhumerus
     direction 1 -4.48971e-011 1.86916e-027   
     length 5.37587   
     axis 180 -30 -90   XYZ
    dof rx ry rz
    limits (-60.0 90.0)
           (-90.0 90.0)
           (-90.0 90.0)
  end
  begin
     id 19
     name lradius
     direction 1 -4.48968e-011 1.69187e-027   
     length 3.35977   
     axis 180 -30 -90   XYZ
    dof rx
    limits (-10.0 170.0)
  end
  begin
     id 20
     name lwrist
     direction 1 -4.48968e-011 5.8978e-027   
     length 1.67988   
     axis -3.27506e-015 90 90   XYZ
    dof ry
    limits (-180.0 0.0)
 end
  begin
     id 21 
     name lhand
     direction 1 -4.49028e-011 1.18071e-026   
     length 0.561859   
     axis -7.52654e-015 90 90   XYZ
    dof rx rz
    limits (-90.0 90.0)
           (-45.0 45.0)
  end
  begin
     id 22 
     name lfingers
     direction 1 -4.48927e-011 2.35758e-026   
     length 0.452985   
     axis -1.50534e-014 90 90   XYZ
    dof rx
    limits (0.0 90.0)
  end
  begin
     id 23
     name lthumb
     direction 0.707107 -6.34898e-011 0.707107   
     length 0.650399   
     axis -90 45 5.69224e-014   XYZ
    dof rx rz
    limits (-45.0 45.0)
           (-45.0 45.0)
  end
  begin
     id 24 
     name rclavicle
     direction -0.988403 0.151789 0.00439714   
     length 3.6942  
     axis 0 0 0   XYZ 
    dof ry rz
    limits (-10.0 20.0)
           (-20.0 0.0)
  end
  begin
     id 25 
     name rhumerus
     direction -1 -4.48978e-011 1.62495e-027  
     length 5.22819   
     axis 180 30 90   XYZ
    dof rx ry rz
    limits (-90.0 60.0)
           (-90.0 90.0)
           (-90.0 90.0)
  end
  begin
     id 26 
     name rradius
     direction -1 -4.48961e-011 3.47796e-027   
     length 3.40764   
     axis 180 30 90   XYZ
    dof rx
    limits (-10.0 170.0)
  end
  begin
     id 27 
     name rwrist
     direction -1 -4.48949e-011 5.89602e-027   
     length 1.70382   
     axis -3.27506e-015 -90 -90   XYZ
    dof ry
    limits (-180.0 0.0)
  end
  begin
     id 28
     name rhand
     direction -1 -4.48977e-011 1.17973e-026   
     length 0.583255   
     axis -7.52654e-015 -90 -90   XYZ
    dof rx rz
    limits (-90.0 90.0)
           (-45.0 45.0)
  end
  begin
     id 29
     name rfingers
     direction -1 -4.49099e-011 2.36408e-026   
     length 0.470235   
     axis -1.50534e-014 -90 -90   XYZ
    dof rx
    limits (0.0 90.0)
  end
  begin
     id 30
     name rthumb
     direction -0.707107 -6.35011e-011 0.707107   
     length 0.675167   
     axis -90 -45 -5.69224e-014   XYZ
    dof rx rz
    limits (-45.0 45.0)
           (-45.0 45.0)
  end
:hierarchy
  begin
    root lhipjoint rhipjoint lowerback
    lhipjoint lfemur
    lfemur ltibia
    ltibia lfoot
    lfoot ltoes
    rhipjoint rfemur
    rfemur rtibia
    rtibia rfoot
    rfoot rtoes
    lowerback upperback
    upperback thorax
    thorax lowerneck lclavicle rclavicle
    lowerneck upperneck
    upperneck head
    lclavicle lhumerus
    lhumerus lradius
    lradius lwrist
    lwrist lhand lthumb
    lhand lfingers
    rclavicle rhumerus
    rhumerus rradius
    rradius rwrist
    rwrist rhand rthumb
    rhand rfingers
  end

#!OML:ASF G:\JayActor3\Patient Classification 1\Patient 1\Session 2\male.ASF
:FULLY-SPECIFIED
:DEGREES
164
root 49.7543 16.7808 -7.50038 156.664 -89.2046 -159.228
lowerback -1.74191 0.635724 -0.358376
upperback 4.22433 0.780465 0.694272
thorax 5.32768 0.333353 0.966788
lowerneck -14.3682 -3.39136 -2.78748
upperneck 19.1875 -5.69528 6.59919
head 8.63097 -2.29859 2.0056
rclavicle -1.32565e-014 -6.95746e-015
rhumerus -28.9775 -11.1262 -82.9362
rradius 24.0752
rwrist 2.04579
rhand -26.6116 4.21757
rfingers 7.12502
rthumb -0.0449797 -25.7622
lclavicle -1.32565e-014 -6.95746e-015
lhumerus -27.2109 4.55647 87.3373
lradius 24.1822
lwrist 6.45661
lhand -19.5083 18.1929
lfingers 7.12502
lthumb 6.81451 48.0632
rfemur -10.0688 1.39672 20.9107
rtibia 32.5324
rfoot -22.3143 -9.50574
rtoes 19.1781
lfemur -2.90291 3.29816 -18.1856
ltibia 18.5659
lfoot -10.388 8.96229
ltoes -7.82968
165
root 49.7513 16.7803 -7.4988 156.826 -89.1836 -159.394
lowerback -1.76133 0.644236 -0.357072
upperback 4.20563 0.792785 0.68845
thorax 5.31902 0.340025 0.960905
lowerneck -14.3466 -3.38612 -2.75752
upperneck 19.1415 -5.68607 6.5773
head 8.60943 -2.29529 1.99448
rclavicle -6.95746e-016 5.96354e-016
rhumerus -29.0175 -11.1724 -82.9215
rradius 24.0666
rwrist 2.06469
rhand -26.608 4.22768
rfingers 7.12502
rthumb -0.0414459 -25.7521
lclavicle -6.95746e-016 5.96354e-016
lhumerus -27.2296 4.58595 87.314
lradius 24.1559
lwrist 6.42747
lhand -19.5073 18.1985
lfingers 7.12502
lthumb 6.81545 48.0688
rfemur -10.0544 1.39743 20.9093
rtibia 32.5313
rfoot -22.315 -9.48469
rtoes 19.1522
lfemur -2.88993 3.30304 -18.1838
ltibia 18.5817
lfoot -10.4215 8.97247
ltoes -7.78856
166
root 49.7483 16.7797 -7.49718 156.865 -89.1655 -159.438
lowerback -1.7819 0.651011 -0.356819
upperback 4.18897 0.802714 0.683751
thorax 5.31317 0.345396 0.956659
lowerneck -14.3292 -3.37997 -2.72742
upperneck 19.0863 -5.67491 6.55706
head 8.58548 -2.29085 1.98407
rclavicle 1.01877e-015 4.96962e-016
rhumerus -29.0516 -11.2188 -82.9059
rradius 24.0604
rwrist 2.08284
rhand -26.6032 4.22937
rfingers 7.12502
rthumb -0.0368208 -25.7504
lclavicle 1.01877e-015 4.96962e-016
lhumerus -27.2457 4.61214 87.2942
lradius 24.1339
lwrist 6.40455
lhand -19.5047 18.2127
lfingers 7.12502
lthumb 6.81798 48.0829
rfemur -10.0384 1.39417 20.9075
rtibia 32.529
rfoot -22.3206 -9.46054
rtoes 19.1318
lfemur -2.87844 3.30929 -18.1815
ltibia 18.5999
lfoot -10.4574 8.97974
ltoes -7.75048
167
root 49.7452 16.7791 -7.49557 156.58 -89.1548 -159.155
lowerback -1.79949 0.653882 -0.357937
upperback 4.17148 0.807379 0.681087
thorax 5.3048 0.348062 0.95491
lowerneck -14.3066 -3.37445 -2.70159
upperneck 19.0152 -5.66272 6.53931
head 8.55538 -2.28625 1.97536
rclavicle 1.86361e-015 1.78906e-015
rhumerus -29.0852 -11.2648 -82.8878
rradius 24.0571
rwrist 2.10166
rhand -26.5966 4.22996
rfingers 7.12502
rthumb -0.0304544 -25.7498
lclavicle 1.86361e-015 1.78906e-015
lhumerus -27.2649 4.63327 87.2779
lradius 24.1164
lwrist 6.38831
lhand -19.5053 18.2265
lfingers 7.12502
lthumb 6.81742 48.0967
rfemur -10.0201 1.38549 20.9067
rtibia 32.525
rfoot -22.3339 -9.43142
rtoes 19.1258
lfemur -2.87084 3.31849 -18.1762
ltibia 18.6221
lfoot -10.4955 8.97703
ltoes -7.73055
168
root 49.7419 16.7784 -7.49394 156.142 -89.149 -158.72
lowerback -1.81791 0.653743 -0.361229
upperback 4.15534 0.807985 0.68025
thorax 5.29836 0.348549 0.956037
lowerneck -14.2769 -3.36968 -2.68077
upperneck 18.9217 -5.64909 6.52492
head 8.51661 -2.28138 1.96884
rclavicle -2.80783e-015 2.98177e-016
rhumerus -29.1132 -11.3064 -82.8683
rradius 24.0523
rwrist 2.12048
rhand -26.5901 4.2342
rfingers 7.12502
rthumb -0.024146 -25.7455
lclavicle -2.80783e-015 2.98177e-016
lhumerus -27.2806 4.64919 87.2658
lradius 24.0995
lwrist 6.38
lhand -19.5032 18.2429
lfingers 7.12502
lthumb 6.81944 48.113
rfemur -9.99966 1.37041 20.9048
rtibia 32.5197
rfoot -22.3538 -9.39421
rtoes 19.1366
lfemur -2.86644 3.3314 -18.1699
ltibia 18.6495
lfoot -10.5377 8.96494
ltoes -7.70787
169
root 49.7387 16.7777 -7.49225 155.449 -89.1462 -158.029
lowerback -1.83313 0.650559 -0.363843
upperback 4.13761 0.804386 0.68178
thorax 5.28847 0.34695 0.95891
lowerneck -14.238 -3.36423 -2.67712
upperneck 18.8119 -5.63283 6.52676
head 8.47163 -2.27529 1.97103
rclavicle 1.92573e-015 -1.78906e-015
rhumerus -29.1411 -11.3383 -82.8484
rradius 24.0489
rwrist 2.13589
rhand -26.5859 4.24054
rfingers 7.12502
rthumb -0.020142 -25.7392
lclavicle 1.92573e-015 -1.78906e-015
lhumerus -27.3025 4.65101 87.2607
lradius 24.0909
lwrist 6.38682
lhand -19.5053 18.262
lfingers 7.12502
lthumb 6.81734 48.1322
rfemur -9.979 1.34976 20.904
rtibia 32.5134
rfoot -22.3793 -9.34756
rtoes 19.162
lfemur -2.86679 3.34997 -18.1603
ltibia 18.6821
lfoot -10.5834 8.94438
ltoes -7.7075
170
root 49.7353 16.7768 -7.49051 154.658 -89.1479 -157.238
lowerback -1.847 0.645262 -0.368181
upperback 4.11803 0.798032 0.684317
thorax 5.27588 0.343923 0.96358
lowerneck -14.1893 -3.35826 -2.68143
upperneck 18.6883 -5.61524 6.5388
head 8.42071 -2.26854 1.9782
rclavicle 5.95112e-015 4.57205e-015
rhumerus -29.1731 -11.3596 -82.8281
rradius 24.0498
rwrist 2.14685
rhand -26.5859 4.24767
rfingers 7.12502
rthumb -0.0200949 -25.7321
lclavicle 5.95112e-015 4.57205e-015
lhumerus -27.3261 4.6384 87.2611
lradius 24.0818
lwrist 6.40475
lhand -19.5078 18.2792
lfingers 7.12502
lthumb 6.815 48.1495
rfemur -9.95799 1.32233 20.9011
rtibia 32.5072
rfoot -22.4077 -9.2916
rtoes 19.1948
lfemur -2.87148 3.3727 -18.1508
ltibia 18.7196
lfoot -10.6294 8.91792
ltoes -7.7274
